<?xml version="1.0" encoding="UTF-8" standalone="no"?>
<!-- Created with Inkscape (http://www.inkscape.org/) -->

<svg
   width="9.3817711mm"
   height="9.381772mm"
   viewBox="0 0 9.3817711 9.3817717"
   version="1.1"
   id="svg5"
   inkscape:export-filename="track_icon.svg"
   inkscape:export-xdpi="96"
   inkscape:export-ydpi="96"
   xmlns:inkscape="http://www.inkscape.org/namespaces/inkscape"
   xmlns:sodipodi="http://sodipodi.sourceforge.net/DTD/sodipodi-0.dtd"
   xmlns="http://www.w3.org/2000/svg"
   xmlns:svg="http://www.w3.org/2000/svg">
  <sodipodi:namedview
     id="namedview7"
     pagecolor="#505050"
     bordercolor="#eeeeee"
     borderopacity="1"
     inkscape:showpageshadow="0"
     inkscape:pageopacity="0"
     inkscape:pagecheckerboard="0"
     inkscape:deskcolor="#505050"
     inkscape:document-units="mm"
     showgrid="false"
     inkscape:zoom="14.638496"
     inkscape:cx="52.122841"
     inkscape:cy="27.086116"
     inkscape:window-width="3840"
     inkscape:window-height="2084"
     inkscape:window-x="0"
     inkscape:window-y="0"
     inkscape:window-maximized="1"
     inkscape:current-layer="layer1" />
  <defs
     id="defs2" />
  <g
     inkscape:label="Layer 1"
     inkscape:groupmode="layer"
     id="layer1">
    <path
       id="path5538-3"
       style="fill:#ffffff;stroke:none;stroke-width:0.756199;paint-order:markers stroke fill"
       d="m 8.0074742,1.3738654 a 4.6906868,4.6906868 0 0 0 -6.6336089,0 4.6906868,4.6906868 0 0 0 10e-8,6.6336088 4.6906868,4.6906868 0 0 0 6.6336087,0 4.6906868,4.6906868 0 0 0 1e-7,-6.6336088 z M 7.6387711,1.7425685 a 4.1694993,4.1694992 45 0 1 3.808e-4,5.8965835 4.1694993,4.1694992 45 0 1 -5.8969643,0 4.1694993,4.1694992 45 0 1 3.808e-4,-5.8965835 4.1694993,4.1694992 45 0 1 5.8962027,0 z" />
    <path
       id="path5538"
       style="fill:#ffffff;stroke:none;stroke-width:0.588155;paint-order:markers stroke fill"
       d="M 7.2700679,2.1112716 A 3.6483119,3.6483119 0 0 0 4.7832264,1.0459177 4.2997962,3.2574213 45 0 1 6.9939215,2.387418 4.2997962,3.2574213 45 0 1 8.3354218,4.5958277 3.6483119,3.6483119 0 0 0 7.2700679,2.1112716 Z M 1.0455368,4.7836073 A 3.6483119,3.6483119 0 0 0 2.1108907,7.2704489 3.6483119,3.6483119 0 0 0 4.5981131,8.3361837 4.2997962,3.2574213 45 0 1 2.3870371,6.9943024 4.2997962,3.2574213 45 0 1 1.0455368,4.7836073 Z" />
    <path
       id="path5538-6"
       style="fill:#ffffff;fill-opacity:1;stroke:none;stroke-width:0.694536;stroke-dasharray:none;stroke-opacity:1;paint-order:markers stroke fill"
       d="M 6.7173942,2.6639454 A 2.8665308,2.8665308 0 0 0 4.6800048,1.8248411 3.518015,2.4756402 45 0 1 6.4408669,2.9404727 3.518015,2.4756402 45 0 1 7.5572603,4.7013347 2.8665308,2.8665308 0 0 0 6.7173942,2.6639454 Z M 1.8244601,4.6811474 A 2.8665308,2.8665308 0 0 0 2.6635645,6.7177751 2.8665308,2.8665308 0 0 0 4.6994303,7.5568793 3.518015,2.4756402 45 0 1 2.9400918,6.4412478 3.518015,2.4756402 45 0 1 1.8244601,4.6811474 Z" />
    <path
       id="path5538-6-20"
       style="fill:#ffffff;fill-opacity:1;stroke:none;stroke-width:0.505116;stroke-dasharray:none;stroke-opacity:1;paint-order:markers stroke fill"
       d="M 6.1647205,3.2166191 A 2.0847497,2.0847497 0 0 0 4.5859245,2.6106205 2.7362339,1.6938591 45 0 1 5.8881931,3.4931464 2.7362339,1.6938591 45 0 1 6.7722426,4.7977003 2.0847497,2.0847497 0 0 0 6.1647205,3.2166191 Z M 2.6102396,4.5863055 A 2.0847497,2.0847497 0 0 0 3.2162382,6.1651014 2.0847497,2.0847497 0 0 0 4.7946531,6.7714808 2.7362339,1.6938591 45 0 1 3.4927655,5.888574 2.7362339,1.6938591 45 0 1 2.6102396,4.5863055 Z" />
    <path
       id="path5538-6-20-5"
       style="fill:#ffffff;fill-opacity:1;stroke:none;stroke-width:0.252558;stroke-dasharray:none;stroke-opacity:1;paint-order:markers stroke fill"
       d="m 5.4276951,3.9536445 a 1.0423748,1.0423748 0 0 0 -1.4740507,0 1.0423748,1.0423748 0 0 0 -3.808e-4,1.4744315 1.0423748,1.0423748 0 0 0 1.4748123,0 1.0423748,1.0423748 0 0 0 -3.808e-4,-1.4744315 z M 4.8746404,4.5066992 a 0.26059371,0.26059371 45 0 1 3.809e-4,0.3683221 0.26059371,0.26059371 45 0 1 -0.3687031,0 0.26059371,0.26059371 45 0 1 3.809e-4,-0.3683221 0.26059371,0.26059371 45 0 1 0.3679413,0 z" />
  </g>
</svg>
